<?xml version="1.0" encoding="UTF-8"?>
<svg id="Capa_2" data-name="Capa 2" xmlns="http://www.w3.org/2000/svg" viewBox="0 0 916.76 234.93">
  <g id="Capa_1-2" data-name="Capa 1">
    <g>
      <g>
        <rect x="70.27" y="220.48" width="143.02" height="14.45" rx=".82" ry=".82"/>
        <path d="M281.69,0h-83.13c-7.88,0-15.52,2.66-21.7,7.54l-13.91,11c-4.74,3.75-10.35,6.23-16.31,7.22l-35.12,7.42c-.38.08-.65.42-.65.81,0,.41.3.76.71.82l38.79,5.45c12.3,1.22,23.35,8.06,29.92,18.53l.98,1.56L.33,198.45c-.63.48-.29,1.48.5,1.48h142.69c53.1,0,96.15-43.05,96.15-96.15V33.94l31.58-24.1,5.28-4.03h0l5.67-4.33c.63-.48.29-1.48-.5-1.48ZM182.99,175.33c-11.7,6.47-25.16,10.16-39.48,10.16H41.12l46.94-35.83c12.86,9.22,28.61,14.67,45.64,14.67,43.31,0,78.43-35.11,78.43-78.43,0-9.57-1.72-18.74-4.87-27.22l.15-.12c2.67,3.27,5.3,7.22,7.67,11.98,18.92,38.08,5.12,84.21-32.09,104.79Z"/>
      </g>
      <g>
        <g>
          <path d="M859.33,59.56c-31.63,0-57.36,25.73-57.36,57.36s25.73,57.36,57.36,57.36,57.36-25.73,57.36-57.36-25.73-57.36-57.36-57.36ZM859.33,156c-21.54,0-39.07-17.53-39.07-39.07s17.53-39.07,39.07-39.07,39.07,17.53,39.07,39.07-17.53,39.07-39.07,39.07Z"/>
          <path d="M475.99,77.85h5.1c.6,0,1.14.35,1.39.9l42.53,94.64c.25.55.79.9,1.39.9h16.72c1.1,0,1.84-1.14,1.39-2.14l-50.19-111.69c-.25-.55-.79-.9-1.39-.9h-28.76c-.6,0-1.14.35-1.39.9l-50.19,111.69c-.45,1.01.28,2.14,1.39,2.14h16.72c.6,0,1.14-.35,1.39-.9l42.53-94.64c.25-.55.79-.9,1.39-.9Z"/>
          <path d="M669.12,156h-13.87c10.16-10.91,16.14-25.76,15.33-41.98-1.45-29.26-25.16-52.95-54.42-54.38-32.66-1.6-59.79,24.28-60.23,56.49-.44,32.12,26.06,58.16,58.18,58.16h54.99c.84,0,1.52-.68,1.52-1.52v-15.25c0-.84-.68-1.52-1.52-1.52ZM613.3,156c-21.54,0-39.07-17.53-39.07-39.07s17.53-39.07,39.07-39.07,39.07,17.53,39.07,39.07-17.53,39.07-39.07,39.07Z"/>
          <path d="M407.99,59.56h-103.77c-.84,0-1.52.68-1.52,1.52v15.25c0,.84.68,1.52,1.52,1.52h42.74v94.92c0,.84.68,1.52,1.52,1.52h15.25c.84,0,1.52-.68,1.52-1.52v-94.92h42.74c.84,0,1.52-.68,1.52-1.52v-15.25c0-.84-.68-1.52-1.52-1.52Z"/>
          <path d="M787.82,59.56h-103.77c-.84,0-1.52.68-1.52,1.52v15.25c0,.84.68,1.52,1.52,1.52h42.74v94.92c0,.84.68,1.52,1.52,1.52h15.25c.84,0,1.52-.68,1.52-1.52v-94.92h42.74c.84,0,1.52-.68,1.52-1.52v-15.25c0-.84-.68-1.52-1.52-1.52Z"/>
        </g>
        <g>
          <g>
            <path d="M302.7,234.93v-17.44h6.34c1.42,0,2.67.23,3.74.69,1.07.46,1.97,1.08,2.69,1.87s1.26,1.71,1.62,2.76c.36,1.06.54,2.18.54,3.38,0,1.33-.2,2.53-.6,3.6-.4,1.07-.98,1.99-1.73,2.75-.75.76-1.66,1.35-2.71,1.77-1.06.42-2.24.63-3.55.63h-6.34ZM314.22,226.18c0-.83-.11-1.6-.34-2.31s-.56-1.31-1.01-1.82c-.44-.51-.99-.9-1.63-1.18-.65-.28-1.38-.42-2.2-.42h-2.95v11.49h2.95c.83,0,1.58-.15,2.22-.44.65-.29,1.19-.7,1.62-1.22.43-.52.77-1.13.99-1.83s.34-1.46.34-2.28Z"/>
            <path d="M323.53,234.93v-17.44h3.39v17.44h-3.39Z"/>
            <path d="M344.18,221.86c-.11-.11-.32-.27-.63-.47s-.67-.39-1.1-.58c-.43-.19-.9-.35-1.41-.48-.51-.13-1.02-.2-1.55-.2-.93,0-1.63.17-2.09.52-.46.34-.69.83-.69,1.45,0,.36.09.66.26.9.17.24.42.45.75.63.33.18.74.34,1.24.49s1.08.3,1.73.47c.85.23,1.62.48,2.32.74.7.26,1.28.59,1.77.98.48.39.86.86,1.12,1.41.26.55.39,1.22.39,2.03,0,.93-.18,1.73-.53,2.39s-.83,1.2-1.42,1.61c-.6.41-1.29.71-2.06.9-.78.19-1.59.28-2.44.28-1.31,0-2.6-.2-3.88-.59-1.28-.39-2.42-.95-3.44-1.67l1.5-2.92c.15.15.41.34.8.58.38.24.84.48,1.36.71.52.24,1.11.44,1.74.6.64.16,1.29.25,1.96.25,1.87,0,2.8-.6,2.8-1.79,0-.38-.11-.7-.32-.96-.21-.26-.52-.49-.91-.69s-.87-.38-1.42-.54c-.56-.16-1.18-.34-1.87-.54-.83-.23-1.56-.48-2.17-.75s-1.13-.59-1.53-.96c-.41-.37-.72-.79-.92-1.28-.2-.48-.31-1.06-.31-1.73,0-.88.16-1.67.49-2.36.33-.69.78-1.26,1.36-1.72.58-.46,1.26-.81,2.03-1.04s1.6-.36,2.48-.36c1.23,0,2.36.19,3.39.58,1.03.39,1.93.84,2.7,1.36l-1.5,2.75Z"/>
            <path d="M364.19,231.95v2.97h-12.11v-17.44h11.89v2.97h-8.5v4.2h7.34v2.75h-7.34v4.54h8.72Z"/>
            <path d="M373.47,223.75v11.17h-3.39v-17.44h2.63l9.09,11.44v-11.42h3.39v17.41h-2.75l-8.96-11.17ZM379.17,215.6c-.38,0-.7-.06-.98-.17-.28-.11-.54-.24-.77-.38-.24-.14-.48-.27-.71-.38-.24-.11-.49-.17-.75-.17-.28,0-.5.06-.65.17-.16.11-.27.25-.36.39-.08.15-.13.28-.15.41-.02.12-.02.19-.02.21h-1.82c0-.15.05-.4.15-.75.1-.35.26-.7.48-1.06.22-.35.52-.66.88-.93.37-.27.82-.41,1.36-.41.38,0,.7.06.97.18s.52.25.76.39c.24.14.47.27.71.39.24.12.5.18.8.18s.53-.06.7-.17c.17-.11.3-.25.39-.39.09-.15.15-.29.17-.42.02-.13.04-.21.04-.25h1.82c0,.11-.05.34-.15.69-.1.34-.27.7-.5,1.06-.24.36-.55.68-.93.97-.38.29-.86.43-1.44.43Z"/>
            <path d="M399.5,234.93c-1.28,0-2.44-.25-3.47-.75-1.04-.5-1.93-1.16-2.68-1.99-.74-.83-1.32-1.77-1.73-2.84-.41-1.06-.61-2.15-.61-3.27s.22-2.28.65-3.34c.43-1.06,1.03-2.01,1.79-2.82.76-.82,1.67-1.47,2.71-1.95,1.05-.48,2.19-.72,3.41-.72s2.41.26,3.45.77c1.04.52,1.93,1.19,2.66,2.03.74.84,1.31,1.78,1.72,2.85.41,1.06.61,2.14.61,3.24,0,1.16-.21,2.27-.64,3.33-.43,1.06-1.02,1.99-1.77,2.8-.75.81-1.65,1.46-2.7,1.94-1.05.48-2.19.72-3.41.72ZM394.45,226.09c0,.75.11,1.48.34,2.19.23.7.56,1.33.99,1.87.43.54.97.97,1.6,1.3.63.33,1.35.49,2.15.49s1.54-.17,2.17-.5c.63-.34,1.16-.78,1.6-1.34s.76-1.18.98-1.88c.22-.7.33-1.4.33-2.12s-.12-1.48-.36-2.19c-.24-.7-.57-1.33-1.01-1.87s-.97-.97-1.6-1.29c-.63-.32-1.34-.48-2.12-.48s-1.55.17-2.19.5c-.64.34-1.17.78-1.6,1.33-.43.55-.75,1.17-.97,1.87-.22.7-.33,1.4-.33,2.12Z"/>
            <path d="M421.95,225.94c0-1.06.19-2.12.58-3.16.38-1.04.95-1.97,1.68-2.79s1.64-1.48,2.7-1.99c1.06-.51,2.28-.76,3.63-.76,1.6,0,2.99.35,4.16,1.06,1.17.7,2.04,1.62,2.62,2.75l-2.6,1.79c-.23-.49-.51-.9-.83-1.24-.33-.34-.68-.6-1.06-.8-.38-.2-.77-.34-1.18-.43-.41-.09-.81-.14-1.2-.14-.85,0-1.59.17-2.22.52-.63.34-1.15.79-1.57,1.34-.42.55-.73,1.17-.95,1.87-.21.7-.32,1.39-.32,2.08,0,.77.12,1.51.37,2.22.25.71.59,1.34,1.04,1.88.45.54.99.97,1.62,1.3.63.33,1.32.49,2.08.49.39,0,.8-.05,1.23-.15.43-.1.83-.25,1.22-.47.38-.21.74-.49,1.07-.82.33-.34.59-.74.79-1.22l2.78,1.6c-.28.65-.68,1.23-1.19,1.73-.52.5-1.1.92-1.74,1.26-.65.34-1.34.61-2.08.79s-1.46.27-2.16.27c-1.24,0-2.38-.26-3.41-.79-1.03-.52-1.92-1.21-2.66-2.05-.75-.84-1.33-1.8-1.74-2.87-.42-1.07-.63-2.16-.63-3.28Z"/>
            <path d="M450.36,234.93c-1.28,0-2.44-.25-3.47-.75-1.04-.5-1.93-1.16-2.68-1.99-.74-.83-1.32-1.77-1.73-2.84-.41-1.06-.61-2.15-.61-3.27s.22-2.28.65-3.34c.43-1.06,1.03-2.01,1.79-2.82.76-.82,1.67-1.47,2.71-1.95,1.05-.48,2.19-.72,3.41-.72s2.41.26,3.45.77c1.04.52,1.93,1.19,2.66,2.03.74.84,1.31,1.78,1.72,2.85.41,1.06.61,2.14.61,3.24,0,1.16-.21,2.27-.64,3.33-.43,1.06-1.02,1.99-1.77,2.8-.75.81-1.65,1.46-2.7,1.94-1.05.48-2.19.72-3.41.72ZM445.3,226.09c0,.75.11,1.48.34,2.19.23.7.56,1.33.99,1.87.43.54.97.97,1.6,1.3.63.33,1.35.49,2.15.49s1.54-.17,2.17-.5c.63-.34,1.16-.78,1.6-1.34s.76-1.18.98-1.88c.22-.7.33-1.4.33-2.12s-.12-1.48-.36-2.19c-.24-.7-.57-1.33-1.01-1.87s-.97-.97-1.6-1.29c-.63-.32-1.34-.48-2.12-.48s-1.55.17-2.19.5c-.64.34-1.17.78-1.6,1.33-.43.55-.75,1.17-.97,1.87-.22.7-.33,1.4-.33,2.12Z"/>
            <path d="M468.12,223.75v11.17h-3.39v-17.44h2.63l9.09,11.44v-11.42h3.39v17.41h-2.75l-8.96-11.17Z"/>
            <path d="M500.04,217.49h3l6.63,17.44h-3.49l-1.62-4.35h-6.09l-1.6,4.35h-3.49l6.65-17.44ZM503.94,228.2l-2.41-6.85-2.5,6.85h4.91Z"/>
            <path d="M514.82,234.93v-17.44h3.39v14.46h8.89v2.97h-12.28Z"/>
            <path d="M546.62,234.93v-11.54l-4.49,8.59h-1.84l-4.49-8.59v11.54h-3.39v-17.44h3.63l5.16,9.92,5.21-9.92h3.61v17.44h-3.39Z"/>
            <path d="M561.85,217.49h3l6.63,17.44h-3.49l-1.62-4.35h-6.09l-1.6,4.35h-3.49l6.65-17.44ZM565.75,228.2l-2.41-6.85-2.5,6.85h4.91Z"/>
            <path d="M585.01,234.93v-17.44h6.34c1.42,0,2.67.23,3.74.69,1.07.46,1.97,1.08,2.69,1.87s1.26,1.71,1.62,2.76c.36,1.06.54,2.18.54,3.38,0,1.33-.2,2.53-.6,3.6-.4,1.07-.98,1.99-1.73,2.75-.75.76-1.66,1.35-2.71,1.77-1.06.42-2.24.63-3.55.63h-6.34ZM596.52,226.18c0-.83-.11-1.6-.34-2.31s-.56-1.31-1.01-1.82c-.44-.51-.99-.9-1.63-1.18-.65-.28-1.38-.42-2.2-.42h-2.95v11.49h2.95c.83,0,1.58-.15,2.22-.44.65-.29,1.19-.7,1.62-1.22.43-.52.77-1.13.99-1.83s.34-1.46.34-2.28Z"/>
            <path d="M617.94,231.95v2.97h-12.11v-17.44h11.89v2.97h-8.5v4.2h7.34v2.75h-7.34v4.54h8.72Z"/>
            <path d="M647.18,234.93v-11.54l-4.49,8.59h-1.84l-4.49-8.59v11.54h-3.39v-17.44h3.63l5.16,9.92,5.21-9.92h3.61v17.44h-3.39Z"/>
            <path d="M662.41,217.49h3l6.63,17.44h-3.49l-1.62-4.35h-6.09l-1.6,4.35h-3.49l6.65-17.44ZM666.31,228.2l-2.41-6.85-2.5,6.85h4.91Z"/>
            <path d="M677.19,234.93v-17.44h6.34c1.42,0,2.67.23,3.74.69,1.07.46,1.97,1.08,2.69,1.87s1.26,1.71,1.62,2.76c.36,1.06.54,2.18.54,3.38,0,1.33-.2,2.53-.6,3.6-.4,1.07-.98,1.99-1.73,2.75-.75.76-1.66,1.35-2.71,1.77-1.06.42-2.24.63-3.55.63h-6.34ZM688.71,226.18c0-.83-.11-1.6-.34-2.31s-.56-1.31-1.01-1.82c-.44-.51-.99-.9-1.63-1.18-.65-.28-1.38-.42-2.2-.42h-2.95v11.49h2.95c.83,0,1.58-.15,2.22-.44.65-.29,1.19-.7,1.62-1.22.43-.52.77-1.13.99-1.83s.34-1.46.34-2.28Z"/>
            <path d="M710.12,231.95v2.97h-12.11v-17.44h11.89v2.97h-8.5v4.2h7.34v2.75h-7.34v4.54h8.72Z"/>
            <path d="M716.02,234.93v-17.44h7.71c.8,0,1.54.17,2.22.5.68.34,1.26.78,1.76,1.33.49.55.88,1.17,1.15,1.87.28.7.42,1.4.42,2.1,0,1.13-.28,2.16-.85,3.08-.56.93-1.33,1.59-2.3,2l3.98,6.56h-3.81l-3.56-5.84h-3.34v5.84h-3.39ZM719.41,226.11h4.25c.31,0,.6-.07.87-.22.27-.15.5-.35.7-.6.2-.25.35-.55.47-.9.11-.34.17-.71.17-1.11s-.07-.79-.2-1.13c-.13-.34-.31-.64-.53-.9-.22-.25-.48-.45-.76-.59-.29-.14-.58-.21-.87-.21h-4.1v5.65Z"/>
            <path d="M740.28,217.49h3l6.63,17.44h-3.49l-1.62-4.35h-6.09l-1.6,4.35h-3.49l6.65-17.44ZM744.18,228.2l-2.41-6.85-2.5,6.85h4.91Z"/>
          </g>
          <rect x="774" y="224.03" width="142.76" height="2.68"/>
        </g>
      </g>
    </g>
  </g>
</svg>