<svg xmlns="http://www.w3.org/2000/svg" viewBox="0 0 24 24" fill="none" stroke="#5C312A" stroke-width="1.6" stroke-linecap="round" stroke-linejoin="round">
  <path d="M20 11.6a7.6 7.6 0 0 1-11.3 6.6L4 19.5l1.4-4.6A7.6 7.6 0 1 1 20 11.6Z"/>
  <path d="M9 9.2c.2-.4.4-.4.6-.4h.5c.2 0 .4 0 .5.4l.6 1.4c.1.2 0 .4-.1.5l-.5.6c-.1.1-.2.3 0 .6.4.7 1 1.2 1.6 1.6.3.2.5.2.7 0l.5-.5c.2-.2.3-.2.5-.1l1.3.6c.2.1.3.3.3.5 0 .3-.3 1.1-1.1 1.3-.7.1-1.5.1-3.2-.9-1.9-1.1-3-2.9-3.1-3.1-.1-.2-.7-1.1-.7-2 0-.8.4-1.2.5-1.4Z"/>
</svg>
