<?xml version="1.0" encoding="UTF-8"?>
<svg id="Capa_2" data-name="Capa 2" xmlns="http://www.w3.org/2000/svg" viewBox="0 0 694.12 553.13">
  <g id="Capa_1-2" data-name="Capa 1">
    <g>
      <g>
        <path d="M141.35,507.66v-23.19h8.43c1.89,0,3.55.3,4.98.91,1.43.61,2.62,1.44,3.58,2.48.96,1.05,1.68,2.27,2.16,3.67.48,1.4.72,2.9.72,4.49,0,1.76-.27,3.36-.8,4.79-.53,1.43-1.3,2.65-2.3,3.66-1,1.01-2.2,1.8-3.61,2.35-1.4.55-2.98.83-4.72.83h-8.43ZM156.66,496.04c0-1.11-.15-2.13-.46-3.07-.31-.94-.75-1.74-1.34-2.42-.59-.67-1.31-1.2-2.17-1.57-.86-.37-1.83-.55-2.92-.55h-3.92v15.29h3.92c1.11,0,2.1-.2,2.96-.59.86-.39,1.58-.93,2.16-1.62.58-.69,1.02-1.5,1.32-2.43.3-.94.46-1.95.46-3.04Z"/>
        <path d="M172.9,507.66v-23.19h4.51v23.19h-4.51Z"/>
        <path d="M204.22,490.6c-.15-.15-.43-.35-.83-.61-.4-.26-.89-.51-1.47-.75-.58-.25-1.2-.45-1.88-.62s-1.36-.26-2.06-.26c-1.24,0-2.17.22-2.78.67-.61.45-.91,1.08-.91,1.89,0,.47.11.86.34,1.17.23.31.56.58,1,.82.44.24.99.45,1.65.64.66.19,1.43.4,2.3.61,1.13.3,2.16.62,3.09.96.93.34,1.71.77,2.35,1.28s1.14,1.13,1.49,1.84c.35.72.52,1.6.52,2.65,0,1.22-.23,2.26-.7,3.13-.47.87-1.1,1.57-1.89,2.1-.8.53-1.71.92-2.74,1.17-1.03.25-2.12.37-3.25.37-1.74,0-3.46-.26-5.16-.77s-3.22-1.24-4.57-2.18l1.99-3.82c.2.19.55.44,1.06.75.51.31,1.12.62,1.81.93s1.47.57,2.32.79c.85.21,1.72.32,2.61.32,2.48,0,3.72-.78,3.72-2.34,0-.49-.14-.91-.42-1.25-.28-.34-.69-.64-1.21-.9-.52-.26-1.15-.49-1.89-.71-.74-.21-1.57-.45-2.48-.71-1.11-.3-2.07-.62-2.89-.98s-1.5-.77-2.04-1.25c-.54-.48-.95-1.04-1.22-1.67-.27-.63-.41-1.38-.41-2.26,0-1.15.22-2.18.65-3.08.44-.9,1.04-1.65,1.81-2.24.77-.6,1.67-1.05,2.69-1.36s2.12-.47,3.3-.47c1.63,0,3.14.25,4.51.75,1.37.5,2.57,1.1,3.59,1.78l-1.99,3.59Z"/>
        <path d="M234.69,503.71v3.95h-16.1v-23.19h15.81v3.95h-11.3v5.58h9.77v3.66h-9.77v6.04h11.59Z"/>
        <path d="M250.89,492.8v14.86h-4.51v-23.19h3.49l12.08,15.22v-15.19h4.51v23.16h-3.66l-11.92-14.86ZM258.47,481.96c-.5,0-.94-.08-1.31-.23-.37-.15-.71-.32-1.03-.51-.32-.18-.63-.35-.95-.51-.32-.15-.65-.23-1-.23-.37,0-.66.08-.87.23-.21.15-.36.33-.47.52-.11.2-.17.38-.2.54-.02.16-.03.26-.03.28h-2.42c0-.2.07-.53.2-1,.13-.47.34-.94.64-1.4.29-.47.69-.88,1.18-1.24.49-.36,1.09-.54,1.81-.54.5,0,.93.08,1.29.24s.7.34,1.01.52c.32.19.63.36.95.52.32.16.67.24,1.06.24s.7-.08.93-.23c.23-.15.4-.33.52-.52.12-.2.2-.38.23-.56.03-.17.05-.28.05-.33h2.42c0,.15-.07.46-.2.91-.13.46-.35.93-.67,1.4-.32.48-.73.91-1.24,1.29-.51.38-1.15.57-1.91.57Z"/>
        <path d="M289.36,507.66c-1.7,0-3.24-.33-4.62-.98-1.38-.65-2.57-1.52-3.56-2.61-.99-1.08-1.76-2.32-2.3-3.72-.54-1.4-.82-2.82-.82-4.28s.29-2.98.87-4.38,1.37-2.63,2.38-3.7c1.01-1.07,2.22-1.93,3.61-2.56,1.39-.63,2.91-.95,4.54-.95s3.21.34,4.59,1.01,2.56,1.56,3.54,2.66c.98,1.1,1.74,2.34,2.29,3.74.54,1.4.82,2.81.82,4.25,0,1.53-.28,2.98-.85,4.36-.57,1.39-1.35,2.61-2.35,3.67-1,1.06-2.2,1.91-3.59,2.54-1.39.63-2.91.95-4.54.95ZM282.63,496.07c0,.99.15,1.94.46,2.87.3.92.75,1.74,1.32,2.45.58.71,1.28,1.28,2.12,1.71.84.43,1.79.64,2.86.64s2.05-.22,2.89-.66c.84-.44,1.55-1.02,2.12-1.76.58-.73,1.01-1.55,1.31-2.46.29-.91.44-1.84.44-2.79s-.16-1.94-.47-2.87c-.32-.92-.76-1.74-1.34-2.45-.58-.71-1.28-1.27-2.12-1.69-.84-.42-1.78-.63-2.83-.63s-2.06.22-2.91.66-1.56,1.02-2.12,1.74c-.57.72-1,1.54-1.29,2.45-.29.91-.44,1.84-.44,2.79Z"/>
        <path d="M326.92,495.92c0-1.39.26-2.76.77-4.12.51-1.36,1.26-2.57,2.24-3.64.98-1.07,2.18-1.93,3.59-2.6,1.42-.66,3.03-.99,4.83-.99,2.13,0,3.98.46,5.54,1.38,1.56.92,2.72,2.12,3.48,3.59l-3.46,2.34c-.31-.64-.68-1.18-1.11-1.62-.44-.44-.9-.79-1.4-1.04-.5-.26-1.02-.44-1.57-.56-.54-.12-1.08-.18-1.6-.18-1.13,0-2.12.22-2.96.67-.84.45-1.53,1.03-2.09,1.75-.55.72-.97,1.53-1.26,2.44-.28.91-.42,1.81-.42,2.71,0,1.01.16,1.97.49,2.9.33.93.79,1.75,1.39,2.45.6.71,1.32,1.27,2.16,1.7.84.43,1.76.64,2.76.64.52,0,1.07-.06,1.63-.19.57-.13,1.1-.33,1.62-.61.51-.28.98-.64,1.42-1.07.44-.44.78-.97,1.05-1.59l3.69,2.09c-.37.86-.9,1.61-1.58,2.26-.69.65-1.46,1.2-2.32,1.65-.86.45-1.78.79-2.76,1.03-.98.24-1.94.35-2.87.35-1.65,0-3.17-.34-4.54-1.03-1.37-.68-2.55-1.58-3.54-2.68-.99-1.1-1.76-2.35-2.32-3.75-.55-1.4-.83-2.83-.83-4.28Z"/>
        <path d="M368.57,507.66c-1.7,0-3.24-.33-4.62-.98-1.38-.65-2.57-1.52-3.56-2.6-.99-1.08-1.76-2.31-2.3-3.7-.54-1.39-.82-2.81-.82-4.27s.29-2.97.87-4.36,1.37-2.62,2.38-3.69c1.01-1.07,2.22-1.92,3.61-2.55,1.39-.63,2.91-.95,4.54-.95s3.21.34,4.59,1.01,2.56,1.56,3.54,2.65c.98,1.09,1.74,2.33,2.29,3.72.54,1.39.82,2.8.82,4.23,0,1.52-.28,2.97-.85,4.35-.57,1.38-1.35,2.6-2.35,3.66-1,1.06-2.2,1.9-3.59,2.53-1.39.63-2.91.95-4.54.95ZM361.84,496.12c0,.98.15,1.94.46,2.85.3.92.75,1.73,1.32,2.44.58.71,1.28,1.27,2.12,1.7.84.43,1.79.64,2.86.64s2.05-.22,2.89-.66c.84-.44,1.55-1.02,2.12-1.75.58-.73,1.01-1.54,1.31-2.45.29-.91.44-1.83.44-2.77s-.16-1.93-.47-2.85c-.32-.92-.76-1.73-1.34-2.44-.58-.71-1.28-1.27-2.12-1.68-.84-.42-1.78-.63-2.83-.63s-2.06.22-2.91.66-1.56,1.02-2.12,1.73c-.57.72-1,1.53-1.29,2.44-.29.91-.44,1.83-.44,2.77Z"/>
        <path d="M396.03,492.8v14.86h-4.51v-23.19h3.49l12.08,15.22v-15.19h4.51v23.16h-3.66l-11.92-14.86Z"/>
        <path d="M446.2,484.47h3.98l8.82,23.19h-4.64l-2.16-5.78h-8.1l-2.12,5.78h-4.64l8.85-23.19ZM451.39,498.71l-3.2-9.11-3.33,9.11h6.53Z"/>
        <path d="M469.72,507.66v-23.19h4.51v19.24h11.82v3.95h-16.33Z"/>
        <path d="M515.87,507.66v-15.35l-5.98,11.43h-2.45l-5.98-11.43v15.35h-4.51v-23.19h4.83l6.86,13.19,6.92-13.19h4.8v23.19h-4.51Z"/>
        <path d="M539.97,484.47h3.98l8.82,23.19h-4.64l-2.16-5.78h-8.1l-2.12,5.78h-4.64l8.85-23.19ZM545.16,498.71l-3.2-9.11-3.33,9.11h6.53Z"/>
      </g>
      <g>
        <path d="M221.98,553.13v-23.19h8.43c1.89,0,3.55.3,4.98.91,1.43.61,2.62,1.44,3.58,2.48.96,1.05,1.68,2.27,2.16,3.67.48,1.4.72,2.9.72,4.49,0,1.76-.27,3.36-.8,4.79-.53,1.43-1.3,2.65-2.3,3.66-1,1.01-2.2,1.8-3.61,2.35-1.4.55-2.98.83-4.72.83h-8.43ZM237.3,541.5c0-1.11-.15-2.13-.46-3.07-.31-.94-.75-1.74-1.34-2.42-.59-.67-1.31-1.2-2.17-1.57-.86-.37-1.83-.55-2.92-.55h-3.92v15.29h3.92c1.11,0,2.1-.2,2.96-.59.86-.39,1.58-.93,2.16-1.62.58-.69,1.02-1.5,1.32-2.43.3-.94.46-1.95.46-3.04Z"/>
        <path d="M269.64,549.17v3.95h-16.1v-23.19h15.81v3.95h-11.3v5.58h9.77v3.66h-9.77v6.04h11.59Z"/>
        <path d="M316.24,553.13v-15.35l-5.98,11.43h-2.45l-5.98-11.43v15.35h-4.51v-23.19h4.83l6.86,13.19,6.92-13.19h4.8v23.19h-4.51Z"/>
        <path d="M340.35,529.94h3.98l8.82,23.19h-4.64l-2.16-5.78h-8.1l-2.12,5.78h-4.64l8.85-23.19ZM345.54,544.18l-3.2-9.11-3.33,9.11h6.53Z"/>
        <path d="M363.86,553.13v-23.19h8.43c1.89,0,3.55.3,4.98.91,1.43.61,2.62,1.44,3.58,2.48.96,1.05,1.68,2.27,2.16,3.67.48,1.4.72,2.9.72,4.49,0,1.76-.27,3.36-.8,4.79-.53,1.43-1.3,2.65-2.3,3.66-1,1.01-2.2,1.8-3.61,2.35-1.4.55-2.98.83-4.72.83h-8.43ZM379.18,541.5c0-1.11-.15-2.13-.46-3.07-.31-.94-.75-1.74-1.34-2.42-.59-.67-1.31-1.2-2.17-1.57-.86-.37-1.83-.55-2.92-.55h-3.92v15.29h3.92c1.11,0,2.1-.2,2.96-.59.86-.39,1.58-.93,2.16-1.62.58-.69,1.02-1.5,1.32-2.43.3-.94.46-1.95.46-3.04Z"/>
        <path d="M411.51,549.17v3.95h-16.1v-23.19h15.81v3.95h-11.3v5.58h9.77v3.66h-9.77v6.04h11.59Z"/>
        <path d="M423.21,553.13v-23.19h10.26c1.07,0,2.05.22,2.96.67.9.45,1.68,1.04,2.34,1.76.65.73,1.16,1.56,1.53,2.48.37.93.56,1.86.56,2.79,0,1.5-.38,2.87-1.13,4.1-.75,1.23-1.77,2.12-3.05,2.66l5.29,8.72h-5.06l-4.74-7.77h-4.44v7.77h-4.51ZM427.71,541.4h5.65c.41,0,.8-.1,1.16-.29s.67-.46.93-.8c.26-.34.47-.73.62-1.19.15-.46.23-.95.23-1.47s-.09-1.05-.26-1.5c-.17-.46-.41-.85-.7-1.19-.29-.34-.63-.6-1.01-.78-.38-.18-.77-.28-1.16-.28h-5.45v7.51Z"/>
        <path d="M459.33,529.94h3.98l8.82,23.19h-4.64l-2.16-5.78h-8.1l-2.12,5.78h-4.64l8.85-23.19ZM464.52,544.18l-3.2-9.11-3.33,9.11h6.53Z"/>
      </g>
      <g>
        <path d="M629.27,294.35c-35.76,0-64.85,29.09-64.85,64.85s29.09,64.85,64.85,64.85,64.85-29.09,64.85-64.85-29.09-64.85-64.85-64.85ZM629.27,403.37c-24.36,0-44.17-19.82-44.17-44.17s19.82-44.17,44.17-44.17,44.17,19.82,44.17,44.17-19.82,44.17-44.17,44.17Z"/>
        <path d="M195.9,315.03h5.77c.68,0,1.29.4,1.57,1.01l48.08,106.99c.28.62.89,1.01,1.57,1.01h18.9c1.25,0,2.08-1.28,1.57-2.42l-56.74-126.26c-.28-.62-.89-1.01-1.57-1.01h-32.52c-.68,0-1.29.4-1.57,1.01l-56.74,126.26c-.51,1.14.32,2.42,1.57,2.42h18.9c.68,0,1.29-.4,1.57-1.01l48.08-106.99c.28-.62.89-1.01,1.57-1.01Z"/>
        <path d="M414.24,403.37h-15.68c11.49-12.33,18.25-29.12,17.34-47.46-1.64-33.07-28.44-59.86-61.52-61.48-36.92-1.81-67.59,27.45-68.09,63.86-.5,36.31,29.46,65.75,65.78,65.75h62.17c.95,0,1.72-.77,1.72-1.72v-17.24c0-.95-.77-1.72-1.72-1.72ZM351.13,403.37c-24.36,0-44.17-19.82-44.17-44.17s19.82-44.17,44.17-44.17,44.17,19.82,44.17,44.17-19.82,44.17-44.17,44.17Z"/>
        <path d="M119.03,294.35H1.72c-.95,0-1.72.77-1.72,1.72v17.24c0,.95.77,1.72,1.72,1.72h48.32v107.3c0,.95.77,1.72,1.72,1.72h17.24c.95,0,1.72-.77,1.72-1.72v-107.3h48.32c.95,0,1.72-.77,1.72-1.72v-17.24c0-.95-.77-1.72-1.72-1.72Z"/>
        <path d="M548.44,294.35h-117.31c-.95,0-1.72.77-1.72,1.72v17.24c0,.95.77,1.72,1.72,1.72h48.32v107.3c0,.95.77,1.72,1.72,1.72h17.24c.95,0,1.72-.77,1.72-1.72v-107.3h48.32c.95,0,1.72-.77,1.72-1.72v-17.24c0-.95-.77-1.72-1.72-1.72Z"/>
      </g>
      <g>
        <rect x="276.79" y="218.25" width="141.57" height="14.3" rx=".82" ry=".82"/>
        <path d="M486.07,0h-82.29c-7.8,0-15.37,2.63-21.48,7.47l-13.76,10.89c-4.69,3.71-10.25,6.17-16.15,7.14l-34.76,7.35c-.38.08-.65.41-.65.8,0,.41.3.75.7.81l38.39,5.4c12.18,1.2,23.11,7.98,29.62,18.34l.97,1.54-179.1,136.71c-.62.47-.29,1.47.5,1.47h141.24c52.56,0,95.18-42.61,95.18-95.18V33.6l31.26-23.86,5.23-3.99h0l5.61-4.28c.62-.47.29-1.47-.5-1.47ZM388.37,173.56c-11.58,6.41-24.9,10.05-39.08,10.05h-101.36l46.46-35.47c12.73,9.13,28.32,14.52,45.18,14.52,42.87,0,77.63-34.76,77.63-77.63,0-9.48-1.71-18.55-4.82-26.95l.15-.11c2.64,3.24,5.25,7.14,7.59,11.86,18.73,37.7,5.07,83.36-31.76,103.73Z"/>
      </g>
    </g>
  </g>
</svg>