<?xml version="1.0" encoding="utf-8"?>
<!-- Generator: Adobe Illustrator 30.0.0, SVG Export Plug-In . SVG Version: 9.03 Build 0)  -->
<svg version="1.1" id="Capa_2_00000036950370437070939530000002405753955478341767_"
	 xmlns="http://www.w3.org/2000/svg" xmlns:xlink="http://www.w3.org/1999/xlink" x="0px" y="0px" viewBox="0 0 510.8 424.75"
	 style="enable-background:new 0 0 510.8 424.75;" xml:space="preserve">
<style type="text/css">
	.st0{fill:#FFFFFF;}
</style>
<g id="Capa_1-2">
	<g>
		<path class="st0" d="M128.54,398.63h255.61c0.82,0,1.49,0.67,1.49,1.49v23.14c0,0.82-0.67,1.49-1.49,1.49H128.54
			c-0.82,0-1.49-0.67-1.49-1.49v-23.14C127.05,399.3,127.72,398.63,128.54,398.63z"/>
		<path class="st0" d="M509.31,0h-150.3c-14.24,0-28.07,4.81-39.24,13.64l-25.14,19.88c-8.57,6.78-18.72,11.27-29.5,13.05
			l-63.5,13.42c-0.69,0.15-1.18,0.75-1.18,1.46c0,0.74,0.55,1.37,1.28,1.48l70.12,9.86c22.24,2.2,42.22,14.57,54.1,33.51l1.77,2.82
			L0.59,358.81c-1.13,0.87-0.52,2.68,0.9,2.68h257.98c96.01,0,173.84-77.83,173.84-173.84V61.37l57.09-43.58l9.55-7.29l0,0
			l10.25-7.82c1.13-0.87,0.52-2.68-0.9-2.68L509.31,0z M330.85,317.01c-21.16,11.7-45.49,18.36-71.38,18.36H74.35l84.87-64.78
			c23.25,16.67,51.72,26.52,82.52,26.52c78.31,0,141.8-63.48,141.8-141.8c0-17.31-3.12-33.89-8.8-49.22l0.27-0.21
			c4.82,5.92,9.59,13.05,13.87,21.66c34.21,68.85,9.26,152.26-58.01,189.47L330.85,317.01z"/>
	</g>
</g>
</svg>
