<?xml version="1.0" encoding="UTF-8"?>
<svg id="Capa_2" data-name="Capa 2" xmlns="http://www.w3.org/2000/svg" viewBox="0 0 510.8 424.75">
  <defs>
    <style>
      .cls-1 {
        fill: #fff6ed;
      }
    </style>
  </defs>
  <g id="Capa_1-2" data-name="Capa 1">
    <g>
      <rect class="cls-1" x="127.05" y="398.63" width="258.59" height="26.12" rx="1.49" ry="1.49"/>
      <path class="cls-1" d="M509.31,0h-150.3c-14.24,0-28.07,4.81-39.24,13.64l-25.14,19.88c-8.57,6.78-18.72,11.27-29.5,13.05l-63.5,13.42c-.69.15-1.18.75-1.18,1.46,0,.74.55,1.37,1.28,1.48l70.12,9.86c22.24,2.2,42.22,14.57,54.1,33.51l1.77,2.82L.59,358.81c-1.13.87-.52,2.68.9,2.68h257.98c96.01,0,173.84-77.83,173.84-173.84V61.37l57.09-43.58,9.55-7.29h0l10.25-7.82c1.13-.87.52-2.68-.9-2.68ZM330.85,317.01c-21.16,11.7-45.49,18.36-71.38,18.36H74.35l84.87-64.78c23.25,16.67,51.72,26.52,82.52,26.52,78.31,0,141.8-63.48,141.8-141.8,0-17.31-3.12-33.89-8.8-49.22l.27-.21c4.82,5.92,9.59,13.05,13.87,21.66,34.21,68.85,9.26,152.26-58.01,189.47Z"/>
    </g>
  </g>
</svg>