<?xml version="1.0" encoding="UTF-8"?>
<svg id="Capa_2" data-name="Capa 2" xmlns="http://www.w3.org/2000/svg" viewBox="0 0 565.44 565.44">
  <g id="Capa_1-2" data-name="Capa 1">
    <g>
      <path d="M282.72,432.1c-82.37,0-149.39-67.01-149.39-149.39s67.01-149.39,149.39-149.39,149.39,67.01,149.39,149.39-67.01,149.39-149.39,149.39ZM282.72,141.02c-78.13,0-141.7,63.57-141.7,141.7s63.57,141.7,141.7,141.7,141.7-63.57,141.7-141.7-63.57-141.7-141.7-141.7Z"/>
      <g>
        <g>
          <path d="M508.88,190.81c-6.07-16.73-24.62-25.4-41.35-19.34-16.73,6.07-25.4,24.62-19.34,41.35s24.62,25.4,41.35,19.34c16.73-6.07,25.4-24.62,19.34-41.35ZM457.87,209.31c-4.13-11.4,1.77-24.03,13.17-28.16,11.4-4.13,24.03,1.77,28.16,13.17s-1.77,24.03-13.17,28.16c-11.4,4.13-24.03-1.78-28.16-13.17Z"/>
          <path d="M147.95,94.13l2.34-1.66c.27-.19.64-.21.93-.04l50.36,29.53c.29.17.65.15.93-.04l7.67-5.45c.51-.36.47-1.12-.06-1.43l-59.43-34.85c-.29-.17-.65-.15-.93.04l-13.19,9.38c-.27.19-.41.53-.34.86l13.4,67.58c.12.61.83.89,1.33.53l7.67-5.45c.27-.19.41-.53.34-.86l-11.36-57.27c-.07-.33.07-.67.34-.86Z"/>
          <path d="M321.94,94.34l-7.79-.39c6.02-5.84,9.8-14.02,9.8-23.16,0-16.48-12.65-30.46-29.05-32.09-18.31-1.82-34.28,11.96-35.44,30.05-1.15,18.04,13.01,33.42,31.06,34.32l30.9,1.55c.47.02.87-.34.9-.81l.43-8.57c.02-.47-.34-.87-.81-.9ZM290.58,92.76c-12.11-.61-21.46-10.95-20.86-23.06.61-12.11,10.95-21.46,23.06-20.86,12.11.61,21.46,10.95,20.86,23.06-.61,12.11-10.95,21.46-23.06,20.86Z"/>
          <path d="M61.36,174.84l-18.31,55.44c-.15.45.1.93.54,1.08l8.15,2.69c.45.15.93-.1,1.08-.54l7.54-22.84,50.71,16.74c.45.15.93-.1,1.08-.54l2.69-8.15c.15-.45-.1-.93-.54-1.08l-50.71-16.74,7.54-22.84c.15-.45-.1-.93-.54-1.08l-8.15-2.69c-.45-.15-.93.1-1.08.54Z"/>
          <path d="M453.25,105.72l-46.31-35.55c-.37-.29-.91-.22-1.2.16l-5.23,6.81c-.29.37-.22.91.16,1.2l19.08,14.64-32.52,42.36c-.29.37-.22.91.16,1.2l6.81,5.23c.37.29.91.22,1.2-.16l32.52-42.36,19.08,14.64c.37.29.91.22,1.2-.16l5.23-6.81c.29-.37.22-.91-.16-1.2Z"/>
        </g>
        <path d="M282.72,565.44c-38.17,0-75.19-7.48-110.05-22.22-33.67-14.24-63.9-34.62-89.86-60.59-25.96-25.96-46.35-56.2-60.59-89.86C7.48,357.91,0,320.88,0,282.72s7.48-75.19,22.22-110.05c14.24-33.67,34.62-63.9,60.59-89.86,25.96-25.96,56.2-46.35,89.86-60.59C207.53,7.48,244.55,0,282.72,0s75.19,7.48,110.05,22.22c33.67,14.24,63.9,34.62,89.86,60.59,25.96,25.96,46.35,56.2,60.59,89.86,14.74,34.86,22.22,71.88,22.22,110.05s-7.48,75.19-22.22,110.05c-14.24,33.67-34.62,63.9-60.59,89.86-25.96,25.96-56.2,46.35-89.86,60.59-34.86,14.74-71.88,22.22-110.05,22.22ZM282.72,7.69C131.07,7.69,7.69,131.07,7.69,282.72s123.38,275.03,275.03,275.03,275.03-123.38,275.03-275.03S434.37,7.69,282.72,7.69Z"/>
      </g>
      <g>
        <path d="M73.87,335.43l17.38-5,1.82,6.32c.41,1.42.54,2.73.39,3.93-.15,1.2-.51,2.27-1.09,3.22-.58.94-1.34,1.75-2.29,2.41-.95.66-2.02,1.16-3.21,1.51-1.32.38-2.58.52-3.76.43-1.18-.09-2.26-.4-3.24-.94-.97-.53-1.82-1.26-2.54-2.2-.72-.93-1.27-2.05-1.64-3.36l-1.82-6.32ZM85.89,344.4c.83-.24,1.57-.58,2.2-1.01.64-.43,1.14-.94,1.52-1.53.38-.59.61-1.24.71-1.97.09-.72.02-1.5-.21-2.31l-.85-2.94-11.46,3.3.85,2.94c.24.83.6,1.53,1.08,2.09.48.56,1.04.98,1.68,1.27.64.28,1.34.44,2.11.47.77.03,1.56-.08,2.38-.31Z"/>
        <path d="M81.86,360.23l16.82-6.65,1.29,3.27-16.82,6.65-1.29-3.27Z"/>
        <path d="M104.49,377.74c.05-.16.1-.43.14-.8.04-.37.05-.8.02-1.29-.03-.49-.1-1-.22-1.53-.12-.53-.3-1.04-.54-1.52-.44-.86-.92-1.43-1.45-1.69-.53-.26-1.09-.25-1.66.04-.33.17-.57.39-.71.66-.14.27-.22.6-.23.99-.01.39.03.85.12,1.38.1.53.22,1.14.38,1.82.18.9.32,1.73.4,2.49.08.77.05,1.47-.08,2.1-.14.63-.4,1.2-.79,1.69s-.95.94-1.69,1.31c-.86.44-1.69.64-2.46.63-.78-.02-1.5-.21-2.15-.57-.66-.36-1.26-.86-1.79-1.49s-1-1.34-1.4-2.13c-.61-1.21-1.03-2.5-1.26-3.87-.23-1.37-.25-2.69-.06-3.96l3.41.02c-.07.21-.12.54-.16,1.01-.04.47-.05,1-.02,1.6.02.6.11,1.23.26,1.9.15.67.38,1.31.69,1.93.87,1.73,1.86,2.31,2.97,1.76.35-.18.59-.42.74-.74.14-.32.21-.71.21-1.16s-.06-.98-.16-1.57c-.11-.59-.23-1.25-.37-1.98-.18-.88-.28-1.67-.32-2.36-.04-.69.02-1.32.17-1.87s.4-1.03.75-1.45c.35-.42.84-.78,1.46-1.09.82-.41,1.62-.63,2.41-.64.79-.02,1.53.14,2.23.46.7.32,1.33.79,1.91,1.39.58.6,1.07,1.31,1.49,2.13.57,1.14.92,2.27,1.05,3.41.12,1.14.12,2.18,0,3.14l-3.25-.1Z"/>
        <path d="M108.33,403.75l-2.59,1.68-6.84-10.53,15.17-9.85,6.71,10.34-2.59,1.68-4.8-7.39-3.65,2.37,4.15,6.39-2.39,1.55-4.15-6.39-3.95,2.57,4.92,7.59Z"/>
        <path d="M123.28,409.48l-8.91,7.41-2.25-2.7,13.91-11.56,1.74,2.1-3.1,14.84,9.11-7.57,2.25,2.7-13.89,11.55-1.82-2.19,2.97-14.56ZM133.56,408.62c-.25-.3-.42-.6-.51-.9-.09-.3-.16-.59-.21-.87-.05-.28-.1-.56-.17-.82-.07-.27-.19-.5-.36-.71-.18-.22-.37-.36-.57-.41-.19-.05-.38-.06-.55-.02s-.31.08-.42.15c-.11.07-.17.11-.18.12l-1.21-1.45c.12-.1.35-.22.7-.38.35-.16.73-.26,1.16-.32.43-.06.87-.03,1.33.09.46.11.87.39,1.23.82.25.3.41.6.5.9.08.3.14.59.19.87.05.28.1.56.16.83.06.27.19.52.38.76.2.24.4.38.6.44s.4.08.57.05.33-.07.45-.14c.12-.07.19-.11.22-.13l1.21,1.45c-.09.08-.31.19-.65.34-.34.15-.73.25-1.18.3-.44.05-.91.02-1.39-.1-.48-.12-.92-.4-1.3-.86Z"/>
        <path d="M135.93,440.29c-.97-.9-1.67-1.91-2.11-3.03s-.64-2.25-.62-3.4c.02-1.15.25-2.28.69-3.38.44-1.1,1.06-2.07,1.84-2.91.82-.88,1.77-1.57,2.86-2.07,1.08-.5,2.2-.79,3.36-.88s2.3.06,3.44.44c1.14.37,2.17,1,3.1,1.86.96.89,1.65,1.9,2.07,3.03.42,1.13.62,2.27.59,3.42-.03,1.15-.27,2.28-.71,3.38-.44,1.1-1.05,2.06-1.83,2.89-.82.88-1.77,1.57-2.84,2.07-1.07.5-2.18.79-3.32.87-1.14.08-2.29-.06-3.42-.44-1.14-.37-2.17-1-3.1-1.86ZM138.34,430.01c-.53.57-.96,1.21-1.28,1.9-.32.7-.51,1.4-.56,2.12-.05.72.04,1.42.29,2.12.25.69.67,1.32,1.28,1.89.62.58,1.29.96,2.01,1.16.72.19,1.43.23,2.16.11.72-.12,1.41-.36,2.07-.73.66-.37,1.24-.83,1.75-1.38.53-.57.96-1.21,1.28-1.91.32-.7.5-1.41.56-2.13.05-.72-.05-1.42-.3-2.11-.25-.69-.68-1.31-1.27-1.87-.62-.58-1.29-.97-2.01-1.16-.72-.2-1.44-.24-2.15-.12-.71.12-1.4.36-2.06.73-.66.37-1.24.83-1.75,1.38Z"/>
        <path d="M165.93,452.69c.59-.93,1.34-1.75,2.26-2.45.91-.7,1.92-1.2,3.02-1.51,1.1-.31,2.26-.39,3.47-.24,1.21.15,2.42.6,3.61,1.35,1.41.89,2.43,1.97,3.06,3.24s.89,2.55.77,3.86l-3.28.13c.07-.56.06-1.07-.04-1.55-.1-.48-.26-.9-.48-1.29-.22-.38-.49-.72-.79-1.03-.31-.31-.64-.57-.98-.79-.75-.47-1.49-.73-2.23-.78-.74-.05-1.45.05-2.12.3-.67.25-1.29.62-1.86,1.11-.57.49-1.05,1.04-1.43,1.64-.43.67-.73,1.39-.91,2.15-.18.76-.22,1.5-.13,2.23.09.72.33,1.4.7,2.04.37.64.89,1.16,1.55,1.58.34.22.73.4,1.16.55.43.15.87.24,1.32.27.45.03.92-.02,1.39-.13.47-.11.93-.32,1.36-.63l1.55,2.94c-.61.42-1.28.71-2,.86-.73.15-1.47.2-2.23.14-.76-.06-1.51-.21-2.25-.46s-1.43-.57-2.04-.96c-1.09-.69-1.94-1.55-2.56-2.58-.61-1.03-1.01-2.12-1.2-3.28-.19-1.15-.16-2.31.07-3.49.23-1.17.65-2.24,1.27-3.22Z"/>
        <path d="M190.69,477.48c-1.2-.57-2.17-1.31-2.93-2.24-.75-.93-1.3-1.95-1.63-3.05-.33-1.11-.45-2.25-.36-3.43.09-1.18.38-2.29.87-3.33.52-1.09,1.21-2.04,2.09-2.84.88-.81,1.86-1.42,2.93-1.85,1.08-.43,2.21-.64,3.41-.63,1.2.01,2.37.29,3.52.84,1.18.56,2.15,1.31,2.89,2.26.75.94,1.28,1.97,1.6,3.08.32,1.11.44,2.25.35,3.43-.09,1.18-.38,2.28-.86,3.31-.52,1.09-1.21,2.04-2.07,2.84-.87.8-1.83,1.41-2.9,1.84s-2.2.63-3.39.62c-1.2-.01-2.37-.29-3.52-.84ZM189.87,466.94c-.33.71-.55,1.44-.65,2.2-.1.76-.06,1.49.1,2.19s.47,1.34.92,1.93c.45.59,1.04,1.06,1.8,1.41.77.36,1.52.53,2.26.49.74-.03,1.44-.22,2.09-.55.65-.33,1.24-.77,1.75-1.33.52-.55.93-1.17,1.25-1.84.33-.71.55-1.44.64-2.21.09-.77.05-1.5-.12-2.2s-.48-1.34-.92-1.92c-.45-.58-1.04-1.04-1.78-1.39-.77-.36-1.53-.53-2.27-.5-.75.03-1.44.21-2.08.53-.64.33-1.22.77-1.74,1.32-.52.55-.93,1.17-1.25,1.84Z"/>
        <path d="M215.82,475.16l-3.57,11.03-3.34-1.08,5.57-17.21,2.59.84,5.31,14.2,3.65-11.27,3.34,1.08-5.56,17.18-2.71-.88-5.28-13.89Z"/>
        <path d="M255.38,477.99l3.08.4,4.48,18.83-3.59-.47-1.08-4.69-6.26-.82-2.23,4.26-3.59-.47,9.19-17.04ZM257.95,489.53l-1.55-7.37-3.5,6.71,5.05.66Z"/>
        <path d="M272.91,497.8l.35-18.08,3.51.07-.29,15,9.22.18-.06,3.08-12.73-.25Z"/>
        <path d="M310.5,496.24l-1.22-11.91-3.73,9.34-1.9.19-5.55-8.39,1.22,11.91-3.5.36-1.84-17.99,3.75-.38,6.37,9.69,4.32-10.79,3.73-.38,1.84,17.99-3.5.36Z"/>
        <path d="M326.66,474.95l3.02-.71,10.85,16.03-3.52.83-2.67-4-6.15,1.45-.58,4.77-3.52.83,2.57-19.19ZM333.15,484.84l-4.06-6.34-.9,7.51,4.96-1.17Z"/>
        <path d="M362.2,482.93l-7.24-16.57,6.02-2.63c1.35-.59,2.64-.89,3.85-.9,1.21,0,2.32.21,3.33.66,1.01.45,1.91,1.1,2.69,1.95s1.42,1.85,1.92,2.98c.55,1.26.86,2.48.92,3.67s-.1,2.3-.5,3.33c-.4,1.04-1.01,1.97-1.84,2.81-.83.84-1.87,1.53-3.11,2.07l-6.02,2.63ZM369.51,469.83c-.35-.79-.78-1.48-1.29-2.05-.51-.57-1.08-1.01-1.71-1.31-.63-.3-1.31-.45-2.04-.44-.73,0-1.48.18-2.26.52l-2.8,1.22,4.77,10.92,2.8-1.22c.79-.35,1.44-.79,1.93-1.34.49-.55.84-1.16,1.04-1.83.2-.67.26-1.39.19-2.15-.07-.76-.28-1.54-.62-2.31Z"/>
        <path d="M395.27,462.71l1.55,2.66-10.85,6.32-9.11-15.63,10.65-6.21,1.55,2.66-7.61,4.44,2.19,3.76,6.58-3.84,1.44,2.46-6.58,3.84,2.37,4.07,7.81-4.55Z"/>
        <path d="M428.02,441.59l-7.85-9.04,2.33,9.79-1.44,1.25-9.37-3.67,7.85,9.04-2.65,2.3-11.86-13.66,2.85-2.47,10.79,4.26-2.67-11.31,2.83-2.46,11.86,13.66-2.65,2.31Z"/>
        <path d="M428.99,414.9l2.07-2.32,18.08,6.89-2.41,2.7-4.49-1.74-4.2,4.72,2.27,4.23-2.41,2.7-8.92-17.18ZM439.98,419.26l-6.97-2.86,3.58,6.67,3.39-3.81Z"/>
        <path d="M455.34,411.49l-14.84-10.33,3.76-5.39c.84-1.21,1.78-2.14,2.81-2.78,1.03-.64,2.09-1.03,3.18-1.18,1.1-.15,2.2-.06,3.31.26,1.11.32,2.18.83,3.19,1.54,1.13.79,2.03,1.67,2.71,2.64.67.98,1.11,2.01,1.32,3.1.2,1.09.17,2.21-.1,3.36-.27,1.15-.79,2.28-1.57,3.39l-3.76,5.39ZM454.72,396.51c-.71-.49-1.43-.85-2.17-1.08-.74-.22-1.45-.3-2.14-.22-.69.08-1.35.31-1.97.69-.62.39-1.17.93-1.66,1.62l-1.75,2.51,9.78,6.81,1.75-2.51c.49-.71.81-1.43.94-2.15.13-.73.11-1.43-.07-2.1s-.5-1.32-.97-1.93c-.46-.61-1.04-1.16-1.74-1.65Z"/>
        <path d="M472.95,376.98l2.72,1.46-5.94,11.06-15.93-8.56,5.83-10.86,2.72,1.46-4.17,7.76,3.84,2.06,3.6-6.71,2.51,1.35-3.6,6.71,4.15,2.23,4.28-7.97Z"/>
        <path d="M480.22,368.65l-16.8-6.71,2.97-7.43c.31-.77.76-1.42,1.34-1.95.58-.53,1.24-.92,1.95-1.18s1.46-.39,2.24-.39,1.51.14,2.18.41c1.09.43,1.97,1.1,2.64,2s1.02,1.89,1.04,2.98l7.85-1.31-1.47,3.67-7,1.18-1.29,3.22,5.63,2.25-1.3,3.26ZM473.03,361.99l1.64-4.09c.12-.3.16-.61.12-.92-.04-.32-.14-.62-.31-.91-.17-.29-.4-.55-.68-.79-.29-.24-.62-.44-1-.59-.39-.16-.78-.24-1.16-.25-.38,0-.74.05-1.07.16s-.62.28-.86.51c-.24.22-.42.48-.54.76l-1.58,3.95,5.44,2.17Z"/>
        <path d="M472.65,335.76l.81-3,19.25-1.92-.94,3.49-4.79.45-1.65,6.1,3.92,2.77-.94,3.49-15.66-11.38ZM484.43,334.74l-7.51.56,6.18,4.36,1.33-4.92Z"/>
      </g>
      <g>
        <rect x="428.78" y="278.87" width="134" height="7.69"/>
        <rect x="3.57" y="278.87" width="132.57" height="7.69"/>
      </g>
      <g>
        <rect x="228.49" y="343.34" width="89.49" height="9.04" rx=".52" ry=".52"/>
        <path d="M360.78,205.37h-52.02c-4.93,0-9.71,1.66-13.58,4.72l-8.7,6.88c-2.97,2.35-6.48,3.9-10.21,4.52l-21.97,4.65c-.24.05-.41.26-.41.5,0,.26.19.47.44.51l24.27,3.41c7.7.76,14.61,5.04,18.72,11.6l.61.98-113.22,86.42c-.39.3-.18.93.31.93h89.28c33.23,0,60.16-26.94,60.16-60.16v-43.7l19.76-15.08,3.31-2.52h0l3.55-2.71c.39-.3.18-.93-.31-.93ZM299.02,315.09c-7.32,4.05-15.74,6.35-24.7,6.35h-64.07l29.37-22.42c8.05,5.77,17.9,9.18,28.56,9.18,27.1,0,49.07-21.97,49.07-49.07,0-5.99-1.08-11.73-3.04-17.04l.09-.07c1.67,2.05,3.32,4.52,4.8,7.5,11.84,23.83,3.21,52.69-20.08,65.57Z"/>
      </g>
    </g>
  </g>
</svg>